<svg width="792" height="297" viewBox="0 0 792 297" fill="none" xmlns="http://www.w3.org/2000/svg">
<g clip-path="url(#clip0_91_22)">
<path d="M187.038 91.5508V91.5614L187.027 91.5508H187.038ZM54.8718 40.1471C74.5921 43.7254 94.323 47.3072 114.057 50.8855C116.315 51.2944 118.572 50.1698 119.602 48.1216C123.5 40.3692 127.401 32.6169 131.309 24.861C132.19 23.1125 133.989 22.009 135.95 22.0125C140.162 22.0266 144.37 22.0407 148.581 22.0513C152.793 22.0372 157 22.0231 161.212 22.0125C163.173 22.0055 164.968 23.1089 165.847 24.861C169.744 32.6134 173.645 40.3692 177.553 48.1216C178.587 50.1663 180.84 51.2944 183.098 50.8855C202.815 47.3072 222.542 43.7254 242.273 40.1471C246.735 39.3363 248.103 33.5476 244.424 30.8965C217.47 11.454 184.375 0 148.581 0C112.788 0 79.6818 11.454 52.7273 30.9C49.0521 33.5511 50.4135 39.3363 54.8718 40.1471ZM151.368 136.33C159.575 128.208 167.779 120.096 175.98 111.97C176.999 110.962 177.409 109.492 177.066 108.103C172.664 90.3452 168.252 72.5772 163.836 54.8092C163.385 52.9937 161.755 51.721 159.886 51.721H137.136C135.266 51.721 133.633 52.9972 133.185 54.8092C128.773 72.5772 124.357 90.3416 119.944 108.099C119.599 109.492 120.011 110.965 121.031 111.973C129.238 120.096 137.442 128.208 145.639 136.33C147.227 137.903 149.784 137.903 151.371 136.33H151.368ZM133.242 242.258C133.693 244.073 135.323 245.346 137.192 245.346H159.942C161.811 245.346 163.445 244.07 163.892 242.258C168.305 224.49 172.721 206.725 177.133 188.968C177.479 187.575 177.066 186.102 176.047 185.094C167.839 176.971 159.635 168.859 151.438 160.737C149.851 159.164 147.294 159.164 145.707 160.737C137.499 168.859 129.295 176.971 121.094 185.097C120.075 186.105 119.666 187.575 120.008 188.964C124.41 206.722 128.822 224.49 133.238 242.258H133.242ZM245.366 159.876V137.138C245.366 135.269 244.089 133.637 242.276 133.189C224.499 128.779 206.726 124.365 188.96 119.955C187.567 119.609 186.092 120.022 185.084 121.041C176.957 129.244 168.841 137.444 160.715 145.637C159.141 147.224 159.141 149.78 160.715 151.366C168.841 159.57 176.957 167.77 185.087 175.963C186.096 176.982 187.567 177.391 188.956 177.049C206.723 172.649 224.499 168.239 242.276 163.825C244.093 163.374 245.366 161.745 245.366 159.876ZM136.293 151.433C137.866 149.847 137.866 147.291 136.293 145.704C128.166 137.501 120.05 129.301 111.92 121.108C110.911 120.089 109.44 119.68 108.051 120.022C90.2844 124.422 72.5076 128.832 54.7308 133.246C52.9143 133.697 51.641 135.326 51.641 137.194V159.933C51.641 161.801 52.9178 163.434 54.7308 163.881C72.5076 168.292 90.2809 172.705 108.047 177.116C109.44 177.461 110.915 177.049 111.923 176.03C120.05 167.826 128.166 159.626 136.293 151.433ZM185.599 95.5839C186.597 99.5923 188.166 105.899 188.678 107.944C188.78 108.353 189.094 108.67 189.507 108.772C191.552 109.28 197.859 110.852 201.873 111.85C202.405 111.98 202.956 111.723 203.192 111.23C207.957 101.337 212.722 91.4416 217.484 81.5493C217.967 80.5481 216.916 79.4975 215.914 79.9805C206.017 84.7433 196.117 89.5061 186.219 94.2654C185.726 94.5016 185.468 95.0516 185.599 95.5839ZM93.674 111.847C97.6844 110.849 103.994 109.28 106.04 108.769C106.449 108.667 106.767 108.353 106.869 107.94C107.377 105.896 108.95 99.5923 109.948 95.5804C110.079 95.048 109.821 94.4981 109.327 94.2619C99.4303 89.4991 89.5296 84.7363 79.6324 79.977C78.6307 79.494 77.5796 80.5446 78.0629 81.5458C82.828 91.438 87.5932 101.334 92.3549 111.226C92.5912 111.72 93.1414 111.977 93.674 111.847ZM242.283 256.853C222.563 253.275 202.832 249.693 183.098 246.115C180.84 245.706 178.583 246.83 177.553 248.878C173.656 256.631 169.755 264.383 165.847 272.139C164.965 273.888 163.166 274.991 161.205 274.987C156.993 274.973 152.785 274.959 148.574 274.949C144.363 274.963 140.155 274.977 135.943 274.987C133.982 274.995 132.187 273.891 131.309 272.139C127.411 264.387 123.51 256.631 119.602 248.878C118.569 246.834 116.315 245.706 114.057 246.115C94.3406 249.693 74.6133 253.275 54.8824 256.853C50.4206 257.664 49.0521 263.452 52.7309 266.103C79.6853 285.546 112.781 297 148.578 297C184.375 297 217.477 285.546 244.431 266.1C248.107 263.449 246.745 257.664 242.287 256.853H242.283ZM266.088 52.6975C263.436 49.0241 257.648 50.3849 256.836 54.841C253.256 74.5514 249.673 94.2724 246.093 113.997C245.684 116.253 246.809 118.509 248.858 119.539C256.614 123.434 264.37 127.334 272.13 131.24C273.88 132.121 274.984 133.919 274.976 135.879C274.962 140.088 274.948 144.294 274.938 148.504C274.952 152.713 274.966 156.919 274.976 161.128C274.984 163.088 273.88 164.882 272.127 165.76C264.37 169.656 256.611 173.555 248.854 177.461C246.809 178.494 245.68 180.747 246.089 183.003C249.669 202.71 253.253 222.427 256.833 242.148C257.644 246.608 263.436 247.976 266.088 244.299C285.54 217.358 297 184.279 297 148.5C297 112.721 285.54 79.635 266.085 52.694L266.088 52.6975ZM48.1456 177.461C40.3894 173.566 32.6332 169.666 24.8734 165.76C23.124 164.879 22.02 163.081 22.027 161.121C22.0412 156.912 22.0553 152.706 22.0658 148.496C22.0517 144.287 22.0376 140.081 22.027 135.872C22.02 133.912 23.124 132.118 24.8734 131.24C32.6296 127.344 40.3894 123.445 48.1456 119.539C50.1913 118.506 51.32 116.253 50.9073 113.997C47.3273 94.2901 43.7437 74.5726 40.1636 54.8515C39.3524 50.3919 33.5608 49.0241 30.9084 52.7011C11.4597 79.6386 0 112.721 0 148.496C0 184.272 11.4632 217.361 30.9155 244.302C33.5679 247.976 39.3559 246.615 40.1672 242.159C43.7472 222.449 47.3308 202.728 50.9109 183.003C51.32 180.747 50.1948 178.49 48.1456 177.461ZM106.77 188.372C104.725 187.864 98.418 186.292 94.4041 185.294C93.8715 185.164 93.3213 185.421 93.085 185.915C88.3198 195.807 83.5546 205.703 78.793 215.595C78.3097 216.596 79.3608 217.647 80.3625 217.164C90.2597 212.401 100.16 207.638 110.058 202.879C110.551 202.643 110.809 202.093 110.678 201.561C109.68 197.552 108.111 191.245 107.599 189.201C107.497 188.792 107.183 188.474 106.77 188.372ZM202.603 185.294C198.593 186.292 192.282 187.861 190.237 188.372C189.828 188.474 189.51 188.788 189.408 189.201C188.9 191.245 187.327 197.549 186.329 201.561C186.198 202.093 186.456 202.643 186.949 202.879C196.847 207.642 206.747 212.405 216.644 217.164C217.646 217.647 218.694 216.596 218.214 215.595C213.449 205.703 208.684 195.807 203.922 185.915C203.686 185.421 203.136 185.164 202.603 185.294Z" fill="#E9E9E9"/>
</g>
<path d="M411.312 91.3281C411.312 95.8906 410.594 100.094 409.156 103.938C407.719 107.75 405.672 111.031 403.016 113.781C400.391 116.531 397.219 118.672 393.5 120.203C389.781 121.734 385.656 122.5 381.125 122.5H358.438V60.25H381.125C385.656 60.25 389.781 61.0156 393.5 62.5469C397.219 64.0781 400.391 66.2188 403.016 68.9688C405.672 71.7188 407.719 75 409.156 78.8125C410.594 82.625 411.312 86.7969 411.312 91.3281ZM398.797 91.3281C398.797 88.0156 398.391 85.0469 397.578 82.4219C396.766 79.7969 395.594 77.5625 394.062 75.7188C392.562 73.875 390.719 72.4688 388.531 71.5C386.344 70.5 383.875 70 381.125 70H370.812V112.703H381.125C383.875 112.703 386.344 112.219 388.531 111.25C390.719 110.281 392.562 108.875 394.062 107.031C395.594 105.188 396.766 102.953 397.578 100.328C398.391 97.6719 398.797 94.6719 398.797 91.3281ZM455.587 122.5H443.212V60.25H455.587V122.5ZM485.283 60.25H495.174C496.236 60.25 497.096 60.5 497.752 61C498.439 61.5 498.955 62.1562 499.299 62.9688L511.018 99.7188C511.486 101 511.955 102.391 512.424 103.891C512.893 105.391 513.33 106.953 513.736 108.578C514.08 106.922 514.455 105.344 514.861 103.844C515.299 102.312 515.768 100.906 516.268 99.625L527.939 62.9688C528.189 62.25 528.674 61.625 529.393 61.0938C530.111 60.5312 530.986 60.25 532.018 60.25H541.955L519.174 122.5H508.064L485.283 60.25ZM584.073 122.5H571.698V60.25H584.073V122.5ZM625.91 60.25C626.441 60.25 626.894 60.2812 627.269 60.3438C627.644 60.375 627.973 60.4688 628.254 60.625C628.566 60.75 628.848 60.9375 629.098 61.1875C629.379 61.4375 629.691 61.7656 630.035 62.1719L660.691 102.578C660.504 100.516 660.41 98.5625 660.41 96.7188V60.25H671.238V122.5H664.91C663.941 122.5 663.129 122.344 662.473 122.031C661.848 121.688 661.223 121.141 660.598 120.391L630.035 80.2188C630.223 82.1562 630.316 83.9531 630.316 85.6094V122.5H619.441V60.25H625.91ZM743.544 60.25V70.0469H717.95V86.5H737.872V95.9219H717.95V112.703H743.591L743.544 122.5H705.575V60.25H743.544ZM399.688 177.25V187.281H382.906V239.5H370.625V187.281H353.844V177.25H399.688ZM474.103 239.5H464.634C463.54 239.5 462.665 239.25 462.009 238.75C461.353 238.219 460.868 237.562 460.556 236.781L456.618 224.547H433.696L429.806 236.734C429.556 237.422 429.071 238.062 428.353 238.656C427.665 239.219 426.806 239.5 425.774 239.5H416.165L438.853 177.25H451.415L474.103 239.5ZM436.462 215.922H453.806L447.478 196.234C447.103 195.266 446.712 194.141 446.306 192.859C445.899 191.547 445.493 190.125 445.087 188.594C444.712 190.125 444.321 191.547 443.915 192.859C443.509 194.172 443.134 195.312 442.79 196.281L436.462 215.922ZM502.814 239.5V177.25H523.955C527.955 177.25 531.377 177.641 534.221 178.422C537.064 179.203 539.377 180.312 541.158 181.75C542.971 183.188 544.283 184.938 545.096 187C545.939 189.031 546.361 191.312 546.361 193.844C546.361 195.281 546.158 196.672 545.752 198.016C545.346 199.359 544.721 200.609 543.877 201.766C543.033 202.922 541.939 203.984 540.596 204.953C539.283 205.891 537.705 206.688 535.861 207.344C543.893 209.281 547.908 213.859 547.908 221.078C547.908 223.734 547.424 226.188 546.455 228.438C545.486 230.688 544.064 232.641 542.189 234.297C540.346 235.922 538.049 237.203 535.299 238.141C532.58 239.047 529.455 239.5 525.924 239.5H502.814ZM515.143 212.453V229.938H525.689C527.658 229.938 529.299 229.688 530.611 229.188C531.924 228.688 532.955 228.016 533.705 227.172C534.486 226.328 535.033 225.359 535.346 224.266C535.658 223.141 535.814 221.984 535.814 220.797C535.814 219.516 535.627 218.359 535.252 217.328C534.908 216.297 534.33 215.422 533.518 214.703C532.736 213.984 531.689 213.438 530.377 213.062C529.096 212.656 527.518 212.453 525.643 212.453H515.143ZM515.143 203.969H523.252C526.721 203.969 529.393 203.312 531.268 202C533.143 200.656 534.08 198.453 534.08 195.391C534.08 192.203 533.268 189.969 531.643 188.688C530.018 187.375 527.455 186.719 523.955 186.719H515.143V203.969ZM591.479 229.375H613.089V239.5H579.151V177.25H591.479V229.375ZM681.223 177.25V187.047H655.629V203.5H675.551V212.922H655.629V229.703H681.269L681.223 239.5H643.254V177.25H681.223Z" fill="#E9E9E9"/>
<defs>
<clipPath id="clip0_91_22">
<rect width="297" height="297" fill="white"/>
</clipPath>
</defs>
</svg>
